<svg xmlns="http://www.w3.org/2000/svg" xmlns:xlink="http://www.w3.org/1999/xlink" viewBox="0 0 747.64 312.18"><defs><style>.cls-1{fill:none;}.cls-2{font-size:72px;font-family:SinkinSans-500MediumItalic, Sinkin Sans;font-weight:500;letter-spacing:0.1em;}.cls-2,.cls-6{fill:#074b89;stroke:#074b89;stroke-miterlimit:10;stroke-width:1.12px;font-style:italic;}.cls-3{clip-path:url(#clip-path);}.cls-4{fill:#004b89;}.cls-5{fill:#f08223;}.cls-6{font-size:110px;font-family:SinkinSans-200XLightItalic, Sinkin Sans;font-weight:200;letter-spacing:0.25em;}</style><clipPath id="clip-path"><rect class="cls-1" x="4.44" y="242.98" width="498.73" height="69.2"/></clipPath></defs><g id="Layer_2" data-name="Layer 2"><g id="Layer_1-2" data-name="Layer 1"><text class="cls-2" transform="translate(0.56 202.85)">ÖN MUHASEBE</text><g class="cls-3"><path class="cls-4" d="M233.07,243c10.38,0,20.76,0,31.14,0,1.46,0,1.75.39,1.75,1.78,0,4.32.07,8.65.25,13,.06,1.47-.32,1.89-1.84,1.88q-29.43-.08-58.87,0c-3.22,0-5.34,1.75-5.5,4.5a4.81,4.81,0,0,0,5,5.2c3.94.07,7.89,0,11.83.08,9.41.08,18.81.15,28.21.27,10.73.14,19.94,9.15,20.53,20a21.17,21.17,0,0,1-18.08,22.2,35.32,35.32,0,0,1-4.36.27c-19.68,0-39.36,0-59,.06-1.54,0-1.86-.45-1.83-1.88q.15-6.09,0-12.17c0-1.46.31-1.88,1.84-1.88,19.41.06,38.82,0,58.23.07,2.46,0,4.32-.77,5.45-3a5.29,5.29,0,0,0-4.79-7.76c-13,0-26.06,0-39.09,0A21.32,21.32,0,0,1,200,243.24a19.25,19.25,0,0,1,3.55-.22h29.52"/><path class="cls-4" d="M359.38,286.62c0-7.08.12-14.17,0-21.25a20,20,0,0,1,4.71-13.29A22.81,22.81,0,0,1,382.6,243c13.9,0,27.79,0,41.69,0,1.33,0,1.71.32,1.68,1.67-.09,4.27-.08,8.55,0,12.82,0,1.33-.33,1.71-1.69,1.7-13.62-.05-27.25,0-40.87,0a16.32,16.32,0,0,0-2.1.08,4.47,4.47,0,0,0-4.21,4.69c0,1.13.11,2.28,0,3.4-.18,1.58.25,2.08,2,2.07,14.33-.08,28.65,0,43-.07,1.41,0,2,.24,1.9,1.82-.12,4.27-.09,8.54,0,12.81,0,1.33-.32,1.72-1.68,1.72-14.44-.05-28.87,0-43.31-.07-1.46,0-1.88.34-1.87,1.85.09,7.68,0,15.36.08,23,0,1.38-.38,1.69-1.71,1.67-4.86-.09-9.73-.08-14.59,0-1.23,0-1.53-.32-1.52-1.53.05-8,0-16,0-24Z"/><path class="cls-4" d="M467.1,243.11c11.46,0,22.91,0,34.37,0,1.35,0,1.72.32,1.69,1.67-.09,4.27-.08,8.54,0,12.81,0,1.26-.29,1.63-1.59,1.62-8.16-.06-16.32,0-24.48-.06-1.29,0-1.61.34-1.6,1.61q.06,24.63,0,49.28c0,2.1,0,2.1-2.18,2.1-4.27,0-8.54-.08-12.81.05-1.57,0-1.81-.5-1.81-1.9,0-16.43,0-32.86.06-49.29,0-1.46-.34-1.87-1.84-1.86-8.16.08-16.32,0-24.48.07-1.29,0-1.64-.35-1.62-1.62q.12-6.5,0-13c0-1.27.39-1.51,1.56-1.5,11.57,0,23.13,0,34.7,0"/><path class="cls-5" d="M109.89,269c0-7.89,0-15.78,0-23.67,0-1.61.47-2,2-1.92,4.21.1,8.43.09,12.65,0,1.46,0,1.9.33,1.9,1.86-.06,15,0,30.05,0,45.07,0,4.09,1.85,5.95,5.93,5.95,14.16,0,28.32,0,42.48,0,1.52,0,1.85.42,1.82,1.88-.11,4.21-.07,8.43,0,12.64,0,1-.25,1.39-1.34,1.39-14.86,0-29.73.15-44.59-.08-12.12-.19-18.7-8.79-20.68-18.44a8,8,0,0,1-.06-1.62V269"/><path class="cls-5" d="M104.38,277.91c0,10.87,0,21.73,0,32.59,0,1.21-.21,1.68-1.58,1.65-4.42-.1-8.86-.12-13.29,0-1.61,0-1.8-.56-1.8-1.93q.06-24.39,0-48.8c0-5.46,0-10.91,0-16.37,0-1.42.47-1.69,1.76-1.67q6.65.12,13.29,0c1.28,0,1.64.31,1.63,1.61,0,11,0,21.94,0,32.91"/><path class="cls-5" d="M22.64,259.14c-1,0-1.41.24-1.38,1.34.07,2.64.1,5.29,0,7.93-.06,1.34.41,1.59,1.64,1.58,12,0,24.08,0,36.13,0,3.49,0,5.73-2.11,5.75-5.38s-2.18-5.42-5.68-5.43c-6,0-12,0-18,0s-12.31,0-18.47,0m0,26.36c-1,0-1.41.24-1.38,1.34.08,2.75.06,5.51,0,8.27,0,.93.17,1.34,1.24,1.34,12.49,0,25,0,37.47,0,3.48,0,5.75-2.27,5.75-5.47s-2.32-5.41-5.94-5.41H41.61c-6.32,0-12.65,0-19,0m53.52-7.95c10.24,8.26,7.81,28.58-9.06,33.6a23.77,23.77,0,0,1-6.87,1q-27,0-54,0c-1.44,0-1.77-.34-1.76-1.77q.08-32.6,0-65.21c0-1.41.32-1.79,1.77-1.78,18.06.05,36.12,0,54.18,0,10,0,18.62,6.59,20.45,15.89a23.7,23.7,0,0,1-.78,13.1c-.77,2.06-1.76,4-3.91,5.13"/><path class="cls-4" d="M295.44,259.15c-4.4,0-7.18,2.79-7.19,7.2q0,11.44,0,22.87c0,4.36,2.86,7.25,7.2,7.26q17.51,0,35,0a6.86,6.86,0,0,0,7.21-7.26q0-11.43,0-22.86c0-4.39-2.85-7.19-7.22-7.2h-35M312.9,243.2h21.24a20.57,20.57,0,0,1,20.67,20.73v27.56A20.21,20.21,0,0,1,334.89,312q-21.88.29-43.77,0c-11.75-.16-20.27-9.12-20.27-20.86q0-13.45,0-26.92c0-12.1,9-21.07,21.14-21.07Z"/></g><text class="cls-6" transform="translate(3.7 100.11)">PREMIUM</text></g></g></svg>